<svg xmlns="http://www.w3.org/2000/svg" width="1257" height="501" viewBox="0 0 1257 501">
    <g fill="none" fill-rule="evenodd">
        <g>
            <g>
                <g transform="translate(-79 -2257) translate(81 2257) translate(0 2)">
                    <g stroke="#E5E7ED" stroke-linecap="round" stroke-linejoin="round" stroke-width="3">
                        <path d="M95.58 0L0 49.56 28.32 53.1zM46.02 56.64L70.8 81.42 95.58 0z"/>
                        <path d="M28.32 53.1L38.94 70.8 56.31 67.038 46.02 56.64 95.58 0zM38.94 70.8L46.02 56.64"/>
                    </g>
                    <circle cx="411.5" cy="491.5" r="6.5" fill-rule="nonzero" stroke="#DEE0E9" stroke-width="2"/>
                    <circle cx="1212.5" cy="114.5" r="6.5" fill-rule="nonzero" stroke="#DEE0E9" stroke-width="2"/>
                    <path fill-rule="nonzero" stroke="#DEE0E9" stroke-linecap="round" stroke-linejoin="round" d="M1126 23.344v3.437m0 3.438v3.437m5-5.156h-3.333m-3.334 0H1121"/>
                    <path fill-rule="nonzero" stroke="#51D3A4" stroke-linecap="round" stroke-linejoin="round" stroke-width="2" d="M141 384.344v3.437m0 3.438v3.437m5-5.156h-3.333m-3.334 0H136"/>
                    <g stroke="#E5E7ED" stroke-dasharray="9" stroke-linecap="round" stroke-linejoin="round" stroke-width="3">
                        <path d="M120.308-12C98.421-2.485 88.795 24.546 91.664 48.204c.307 2.505.798 5.153 2.507 7.015 1.36 1.475 3.33 2.255 5.289 2.704 6.225 1.384 12.745-.063 17.795-3.949 1.795-1.403 3.442-3.26 3.708-5.515.45-3.847-3.289-7.01-7.054-7.949-10.107-2.51-19.835 5.46-25.754 14.036-5.327 7.742-9.2 16.386-11.426 25.51-3.387 13.964-2.803 28.54-3.929 42.857C71.675 137.23 68.483 152.18 59 163" transform="translate(1073 297) rotate(-124 90 75.5)"/>
                    </g>
                    <g stroke="#E5E7ED" stroke-dasharray="9" stroke-linecap="round" stroke-linejoin="round" stroke-width="3">
                        <path d="M120.308-12C98.421-2.485 88.795 24.546 91.664 48.204c.307 2.505.798 5.153 2.507 7.015 1.36 1.475 3.33 2.255 5.289 2.704 6.225 1.384 12.745-.063 17.795-3.949 1.795-1.403 3.442-3.26 3.708-5.515.45-3.847-3.289-7.01-7.054-7.949-10.107-2.51-19.835 5.46-25.754 14.036-5.327 7.742-9.2 16.386-11.426 25.51-3.387 13.964-2.803 28.54-3.929 42.857C71.675 137.23 68.483 152.18 59 163" transform="matrix(-1 0 0 1 205 151) rotate(-124 90 75.5)"/>
                    </g>
                </g>
            </g>
        </g>
    </g>
</svg>
