<svg xmlns="http://www.w3.org/2000/svg" width="1247" height="627" viewBox="0 0 1247 627">
    <g fill="none" fill-rule="evenodd">
        <g>
            <g transform="translate(-118 -118) translate(119 120)">
                <g stroke="#DEE0E9" stroke-linecap="round" stroke-linejoin="round" stroke-width="3" opacity=".7" transform="rotate(19 26.206 167.149)">
                    <circle cx="57.78" cy="55.469" r="55.469"/>
                    <path d="M43.913 121.055c-13.2-2.797-25.247-9.516-34.564-19.276L0 110.938M113.249 0l-8.159 7.997c19.215 19.15 24.99 47.995 14.63 73.068-10.36 25.072-34.812 41.427-61.94 41.429v9.244M16.178 143.294h0c0-2.552 2.07-4.622 4.623-4.622h16.178c3.83 0 6.934-3.104 6.934-6.934h27.734c0 3.83 3.104 6.934 6.934 6.934h18.49c2.552 0 4.622 2.07 4.622 4.622h0"/>
                    <path d="M80.892 16.178l-4.137 2.069c-.319.16-.671.244-1.029.243h-7.135c-.944 0-1.793.574-2.144 1.45l-2.542 6.356c-.29.721-.198 1.54.246 2.179.443.639 1.178 1.012 1.955.993 2.796-.161 5.541.8 7.627 2.67.149.135.314.251.491.346l3.08 1.537c.785.393 1.28 1.196 1.277 2.074v.884c0 1.277-1.035 2.311-2.311 2.311h-6.558c-.25 0-.498-.04-.734-.12l-4.675-1.555c-1.09-.364-2.28.129-2.796 1.155l-3.247 6.495c-.306.609-.327 1.321-.058 1.947l5.934 13.792c.365.85 1.201 1.4 2.126 1.398h6.079c.971 0 1.84.607 2.172 1.52l7.685 21.136c.236.674.772 1.202 1.45 1.428.678.226 1.423.125 2.017-.272l3.466-2.312c.643-.429 1.03-1.15 1.029-1.924v-7.476c-.001-.358.082-.71.243-1.029l6.31-12.62c.245-.493.307-1.059.173-1.594l-2.04-8.164c-.042-.164-.102-.323-.18-.474l-2.836-5.674c-.357-.713-.321-1.56.095-2.24.416-.68 1.153-1.098 1.95-1.105h4.27c.773 0 1.495.385 1.924 1.028l3.935 5.905M46.542 11.874c.49.49.735 1.173.667 1.863-.069.69-.443 1.312-1.02 1.696l-2.663 1.774c-.51.34-.865.869-.986 1.47-.12.602.004 1.226.344 1.737l1.306 1.958c.44.66.512 1.501.188 2.226-.324.725-.997 1.233-1.783 1.345l-11.226 1.6c-.82.118-1.514.665-1.82 1.434L26 37.84c-.351.876-1.2 1.45-2.144 1.45H19.45c-.613 0-1.202.243-1.635.676l-2.531 2.531c-.814.814-.905 2.102-.214 3.022l5.24 6.98c.32.424.774.726 1.29.855l7.828 1.959c.402.094.77.293 1.07.578l5.956 5.957c.34.34.779.567 1.254.647l10.47 1.733c.667.111 1.252.508 1.601 1.087.349.58.427 1.282.213 1.924l-3.467 10.4c-.193.58-.608 1.06-1.155 1.335l-2.49 1.242c-.795.397-1.291 1.215-1.277 2.103v5.507s0 6.933 2.31 9.244c2.312 2.312-11.555-2.31-13.866-9.244-2.312-6.934-4.623-9.245-4.623-9.245l-8.985-11.233c-.172-.213-.305-.456-.392-.716l-2.179-6.54"/>
                </g>
                <g stroke="#DEE0E9" stroke-linecap="round" stroke-linejoin="round" stroke-width="3" opacity=".7">
                    <path d="M51.48 9.88V.317l-.858-.093C41.439-.764 32.973 1.69 24.788 4.066c-5.865 1.7-11.918 3.438-18.163 3.89V5.408H0v111.65h6.614v-54.84c10.442.28 21.648-2.746 30.046-5.288v5.298c.01.54.288 1.04.744 1.332.837.592 2.865.858 5.668.858 9.88 0 29.426-3.318 41.106-7.478l.64-.229V2.402l-1.28.453C73.174 6.479 62.41 8.838 51.48 9.88zm0 43.456V9.714" transform="rotate(-23 687.615 -2256.445)"/>
                </g>
                <g stroke="#DEE0E9" stroke-linecap="round" stroke-linejoin="round" stroke-width="3" opacity=".7">
                    <path d="M54.627 26.862c7.569 0 13.611-9.555 11.535-18.96M43.392 17.079c5.217 1.104 10.893-1.884 11.235-7.5M43.392 51.03c7.68 0 11.34 2.835 11.34 7.56M63.438 21.774c3.393.846 6.462 5.019 6.462 8.466M18.318 65.292c-2.232-3.789-2.232-8.49 0-12.279M34.224 23.7c-3.345.846-5.952 3.096-5.952 6.543" transform="rotate(16 -250.075 4245.78)"/>
                    <path d="M43.392 28.35c-3.01.01-5.9-1.182-8.03-3.31-2.128-2.13-3.32-5.02-3.31-8.03V9.45M16.932 39.396c6.828 0 13.23 6.723 13.23 14.1v5.094M28.344 46.059c3.075-3.381 8.829-5.166 15.048-4.233M19.575 26.793c-1.043 1.1-2.493 1.723-4.01 1.723-1.516 0-2.966-.623-4.009-1.723L7.545 22.8M3.675 44.979c1.868 2.145 4.464 3.524 7.287 3.87M20.712 7.56L20.712 13.23M78.411 23.1c4.866 1.5 8.451 6.657 8.451 12.798 0 3.849-1.407 7.314-3.66 9.732.302 1.59.36 3.217.171 4.824-.9 7.86-7.278 13.587-14.235 12.819-1.839 4.965-6.555 8.535-12.498 8.535-7.5 0-13.248-5.67-13.248-12.666V11.259C43.392 4.731 48.192 0 54.732 0c5.385 0 9.975 3 11.43 7.902 7.755.243 12.924 8.139 12.249 15.198z" transform="rotate(16 -250.075 4245.78)"/>
                    <path d="M69.138 63.3c5.79-13.629-3.6-21.705-12.522-21.141v-2.454c0-4.635-4.104-5.67-7.56-5.67M66.759 45.6c3.531-.819 6.324-3.873 6.324-7.05M3.66 45c-.41 1.794-.512 3.644-.3 5.472.9 7.86 7.173 13.587 14.034 12.819C19.2 68.25 24.3 71.82 30.162 71.82c7.386 0 13.23-6.234 13.23-13.23V10.776C43.392 4.248 38.517 0 32.052 0c-5.307 0-9.9 2.667-11.34 7.56-6.405.204-12.519 7.833-13.167 15.24C3.144 24.6 0 29.502 0 35.262 0 39.111 1.41 42.576 3.66 45" transform="rotate(16 -250.075 4245.78)"/>
                </g>
                <g stroke="#DEE0E9" stroke-linecap="round" stroke-linejoin="round" stroke-width="3" opacity=".5">
                    <path d="M43.134 45.318l-2.184 2.184H30.03l-2.184-2.184H0v3.822c0 1.508 1.222 2.73 2.73 2.73h64.974c1.508 0 2.73-1.222 2.73-2.73v-3.822h-27.3zM67.158 40.95V2.73c0-1.508-1.222-2.73-2.73-2.73H6.006c-1.508 0-2.73 1.222-2.73 2.73v38.22M3.276 6.006L67.158 6.006" transform="rotate(-14 2468.273 -1002.168)"/>
                </g>
                <g stroke="#DEE0E9" stroke-linecap="round" stroke-linejoin="round" stroke-width="3" opacity=".3" transform="rotate(19 -1189.493 2642.036)">
                    <rect width="48.256" height="79.872" rx="4.16"/>
                    <path d="M19.968 73.216L28.288 73.216M37.44 0l-1.424 3.917c-.598 1.644-2.16 2.74-3.91 2.739H16.15c-1.75 0-3.312-1.095-3.91-2.74L10.816 0"/>
                </g>
                <g fill="#DEE0E9" fill-rule="nonzero" stroke="#DEE0E9" opacity=".7">
                    <path d="M36.068 2c1.029.001 1.863.836 1.864 1.865v11.547c-3.116 1.33-5.142 4.387-5.152 7.775V31.5H19.25c-.872-.003-1.71.344-2.325.962l-5.988 5.973V34.78c-.006-1.813-1.477-3.279-3.29-3.28H3.865c-.496 0-.97-.198-1.32-.55-.35-.35-.546-.827-.545-1.322V3.878c-.003-.497.193-.974.543-1.327.35-.352.825-.55 1.322-.551h32.203m37.357 19.323c1.03 0 1.864.835 1.865 1.864V48.95c-.001 1.03-.836 1.864-1.865 1.865H69.64c-1.814.003-3.285 1.473-3.287 3.288v3.647l-5.98-5.98c-.619-.614-1.454-.96-2.325-.963H41.22c-1.029 0-1.862-.835-1.862-1.864v-25.75c.006-.789.506-1.49 1.25-1.75.198-.072.406-.11.617-.11h32.2M36.068 0H3.864C1.731.001.001 1.731 0 3.865v25.763c-.001 2.136 1.729 3.87 3.865 3.872h3.782c.712 0 1.29.576 1.29 1.288v8.485l9.393-9.396c.244-.243.575-.38.92-.377h15.538V23.187c.003-3.057 2.151-5.692 5.145-6.312v-13c.001-1.027-.405-2.012-1.13-2.739C38.078.41 37.094.001 36.068 0zm37.357 19.323H41.22c-2.13.008-3.856 1.734-3.862 3.864V48.95c0 2.133 1.729 3.862 3.862 3.865h16.828c.341 0 .669.136.91.378l9.395 9.395v-8.486c0-.71.577-1.286 1.287-1.287h3.785c2.133-.003 3.862-1.732 3.865-3.865V23.2c.002-1.027-.404-2.012-1.13-2.74-.724-.727-1.708-1.136-2.735-1.137z" transform="rotate(-10 1178.56 -1343.047)"/>
                </g>
                <path fill-rule="nonzero" stroke="#DEE0E9" stroke-width="3" d="M1193.5 37.5v5m0 5v5m7.5-7.5h-5m-5 0h-5"/>
                <circle cx="881.5" cy="202.5" r="5.5" fill-rule="nonzero" stroke="#FFF" stroke-width="2"/>
                <circle cx="272.5" cy="75.5" r="3.5" fill-rule="nonzero" stroke="#DEE0E9" stroke-width="2"/>
                <circle cx="6" cy="344" r="6" fill-rule="nonzero" stroke="#51D3A4" stroke-width="2"/>
                <circle cx="601.5" cy="567.5" r="3.5" fill-rule="nonzero" stroke="#C2EEDD" stroke-width="2"/>
                <circle cx="1203.5" cy="495.5" r="3.5" fill-rule="nonzero" stroke="#C2EEDD" stroke-width="2"/>
                <circle cx="601.5" cy="36.5" r="5.5" fill-rule="nonzero" stroke="#FFF" stroke-width="2"/>
            </g>
        </g>
    </g>
</svg>
