<svg xmlns="http://www.w3.org/2000/svg" width="1179" height="495" viewBox="0 0 1179 495">
    <g fill="none" fill-rule="evenodd">
        <g>
            <g>
                <g transform="translate(-116 -1587) translate(0 1500) translate(118.238 87.596)">
                    <g stroke="#C87F31" stroke-linecap="round" stroke-linejoin="round" stroke-width="3" opacity=".2">
                        <path d="M54.627 26.862c7.569 0 13.611-9.555 11.535-18.96M43.392 17.079c5.217 1.104 10.893-1.884 11.235-7.5M43.392 51.03c7.68 0 11.34 2.835 11.34 7.56M63.438 21.774c3.393.846 6.462 5.019 6.462 8.466M18.318 65.292c-2.232-3.789-2.232-8.49 0-12.279M34.224 23.7c-3.345.846-5.952 3.096-5.952 6.543" transform="rotate(16 -606.614 160.02)"/>
                        <path d="M43.392 28.35c-3.01.01-5.9-1.182-8.03-3.31-2.128-2.13-3.32-5.02-3.31-8.03V9.45M16.932 39.396c6.828 0 13.23 6.723 13.23 14.1v5.094M28.344 46.059c3.075-3.381 8.829-5.166 15.048-4.233M19.575 26.793c-1.043 1.1-2.493 1.723-4.01 1.723-1.516 0-2.966-.623-4.009-1.723L7.545 22.8M3.675 44.979c1.868 2.145 4.464 3.524 7.287 3.87M20.712 7.56L20.712 13.23M78.411 23.1c4.866 1.5 8.451 6.657 8.451 12.798 0 3.849-1.407 7.314-3.66 9.732.302 1.59.36 3.217.171 4.824-.9 7.86-7.278 13.587-14.235 12.819-1.839 4.965-6.555 8.535-12.498 8.535-7.5 0-13.248-5.67-13.248-12.666V11.259C43.392 4.731 48.192 0 54.732 0c5.385 0 9.975 3 11.43 7.902 7.755.243 12.924 8.139 12.249 15.198z" transform="rotate(16 -606.614 160.02)"/>
                        <path d="M69.138 63.3c5.79-13.629-3.6-21.705-12.522-21.141v-2.454c0-4.635-4.104-5.67-7.56-5.67M66.759 45.6c3.531-.819 6.324-3.873 6.324-7.05M3.66 45c-.41 1.794-.512 3.644-.3 5.472.9 7.86 7.173 13.587 14.034 12.819C19.2 68.25 24.3 71.82 30.162 71.82c7.386 0 13.23-6.234 13.23-13.23V10.776C43.392 4.248 38.517 0 32.052 0c-5.307 0-9.9 2.667-11.34 7.56-6.405.204-12.519 7.833-13.167 15.24C3.144 24.6 0 29.502 0 35.262 0 39.111 1.41 42.576 3.66 45" transform="rotate(16 -606.614 160.02)"/>
                    </g>
                    <path fill-rule="nonzero" stroke="#51D3A4" stroke-linecap="round" stroke-linejoin="round" stroke-width="3.2" d="M1162.762 469.154v7.5m0 7.5v7.5m11-11.25h-7.333m-7.334 0h-7.333"/>
                    <circle cx="314.762" cy="7.404" r="7" fill-rule="nonzero" stroke="#FFF" stroke-width="2"/>
                    <circle cx="27.762" cy="401.404" r="4" fill-rule="nonzero" stroke="#51D3A4" stroke-opacity=".4" stroke-width="2"/>
                </g>
            </g>
        </g>
    </g>
</svg>
