<svg xmlns="http://www.w3.org/2000/svg" width="24" height="24" viewBox="0 0 25 24">
    <g fill="none" fill-rule="evenodd">
        <g fill="#C87F31" fill-rule="nonzero">
            <g>
                <g>
                    <path d="M16.032 11.623c-.005-.028-.013-.056-.021-.084-.008-.027-.018-.054-.029-.08-.01-.027-.023-.053-.037-.078-.013-.026-.028-.05-.044-.075l-.05-.069c-.02-.022-.039-.043-.06-.063-.02-.02-.04-.04-.062-.058-.022-.018-.046-.035-.07-.051-.024-.017-.048-.03-.073-.044-.026-.014-.052-.026-.078-.037-.054-.022-.109-.039-.165-.05-.085-.017-.172-.021-.258-.013-.029.003-.057.007-.086.013-.028.005-.056.012-.083.021-.028.008-.055.018-.081.03-.027.01-.053.022-.078.036-.025.013-.05.028-.074.044-.024.015-.047.033-.07.051-.045.036-.088.077-.125.123-.018.022-.036.045-.052.069l-.044.074c-.013.025-.025.051-.037.078l-.029.08c-.008.028-.015.056-.02.084-.006.029-.01.057-.013.086-.004.028-.005.058-.005.086 0 .03 0 .058.005.087.004.028.007.057.013.085.005.028.012.057.02.084.009.027.019.054.03.08.01.027.023.053.036.078.014.026.029.05.044.075.016.024.034.047.052.069.037.046.08.088.126.125.022.019.045.036.069.052.024.016.049.03.074.044.025.014.051.026.078.036.026.012.053.021.08.03.028.008.056.015.084.02.029.006.057.01.086.013.028.003.057.005.086.005.058 0 .115-.006.172-.017.056-.012.111-.029.165-.05.026-.011.052-.024.078-.037.025-.013.05-.028.073-.044.023-.016.048-.033.07-.052.022-.018.043-.037.063-.058.02-.02.04-.04.058-.063.018-.022.035-.045.05-.069.017-.024.032-.049.045-.074.014-.025.026-.051.037-.078l.029-.081c.008-.028.016-.055.021-.084.006-.028.01-.056.013-.085.003-.029.004-.057.004-.086 0-.058-.006-.116-.017-.172v-.006zM12.638 11.541c-.008-.027-.018-.054-.029-.08-.01-.027-.023-.053-.037-.079-.013-.025-.028-.05-.044-.074-.016-.024-.033-.047-.051-.069-.018-.022-.038-.044-.058-.063-.02-.019-.042-.04-.063-.057-.02-.019-.046-.036-.07-.052-.023-.016-.048-.03-.074-.044-.025-.014-.051-.026-.078-.036-.026-.012-.053-.021-.08-.03-.028-.008-.056-.015-.084-.02-.028-.006-.057-.01-.086-.014-.057-.006-.115-.006-.172 0-.029 0-.058.008-.086.013-.028.006-.056.013-.083.022-.028.008-.055.018-.081.029-.027.01-.053.023-.078.036-.025.013-.05.028-.074.044-.024.016-.047.033-.07.052-.022.018-.044.037-.062.057-.02.02-.04.042-.058.063-.019.022-.036.045-.052.07l-.044.073-.037.078c-.011.027-.02.054-.029.081l-.021.084c-.006.028-.01.057-.013.085-.005.058-.005.116 0 .173.003.029.007.057.013.086.006.028.013.056.021.083.008.028.019.055.03.081.01.027.022.053.036.078l.044.074c.016.024.033.047.052.07.018.022.037.043.058.062l.062.058c.021.018.046.035.07.051.024.017.049.03.074.044.026.014.051.026.078.037l.08.029c.028.008.056.016.084.021.028.006.057.01.086.013.028.004.057.004.086.004.03 0 .058 0 .086-.004.029-.003.058-.007.086-.013.028-.005.056-.012.083-.021.028-.008.055-.018.081-.03.027-.01.053-.022.078-.036.025-.013.05-.028.074-.044.024-.015.048-.033.07-.051.023-.018.044-.038.063-.058l.058-.063c.018-.022.035-.045.051-.069.016-.024.031-.049.044-.074.014-.025.026-.051.037-.078.012-.026.02-.054.03-.08.008-.028.014-.056.02-.084.006-.029.01-.057.013-.086.003-.029.005-.058.005-.087 0-.028 0-.057-.005-.086-.004-.029-.007-.057-.013-.085l-.02-.084zM9.265 11.541c-.008-.027-.018-.054-.029-.08-.01-.027-.023-.053-.036-.079-.013-.025-.028-.05-.045-.074-.016-.024-.032-.047-.05-.069-.038-.044-.079-.085-.123-.122-.022-.019-.045-.036-.07-.051-.023-.017-.048-.031-.073-.045-.026-.014-.052-.026-.078-.036l-.081-.03c-.028-.009-.056-.015-.084-.02-.028-.006-.057-.01-.085-.014-.058-.005-.116-.005-.173 0-.028 0-.057.008-.086.013-.028.006-.056.013-.083.021-.028.008-.055.018-.081.03-.027.011-.053.023-.078.036-.025.013-.05.028-.074.045-.024.015-.047.032-.07.05-.044.038-.085.079-.122.123-.018.022-.035.045-.051.07-.017.023-.03.048-.044.073-.014.026-.026.052-.037.078l-.03.081c-.008.027-.014.056-.02.084-.006.028-.01.057-.013.085-.003.029-.005.058-.005.087 0 .029 0 .058.005.086.004.028.007.057.013.086.006.028.012.056.02.083.009.028.019.055.03.081.011.027.023.053.037.078.013.025.028.05.044.074.015.024.033.047.051.07.036.045.078.087.123.125.022.018.045.035.069.052.024.016.049.03.074.043.025.014.051.026.078.037.026.011.053.02.08.029.028.009.056.016.084.021.057.011.115.017.173.017.028 0 .057-.001.086-.004.057-.006.114-.017.169-.034.027-.008.054-.018.08-.03.027-.01.053-.022.079-.036.025-.013.05-.028.074-.043.024-.016.047-.034.069-.052.045-.038.086-.08.122-.126.019-.022.035-.045.051-.069.017-.024.031-.049.045-.074.014-.025.026-.051.036-.078.01-.026.021-.053.03-.08.016-.056.028-.112.033-.17.003-.028.005-.057.004-.086 0-.058-.005-.115-.017-.172-.005-.028-.012-.056-.02-.084z" transform="translate(-267 -220) translate(175 220) translate(92.5)"/>
                    <path d="M23.538 22.752l-1.752-4.678c1.185-1.88 1.811-4.056 1.808-6.277C23.594 5.292 18.302 0 11.797 0 5.293 0 0 5.292 0 11.797c0 6.505 5.292 11.797 11.797 11.797.858 0 1.713-.093 2.551-.277.307-.067.555-.293.65-.593.095-.3.024-.627-.188-.859-.212-.232-.532-.334-.838-.266-.714.157-1.442.236-2.173.235-5.537 0-10.04-4.502-10.04-10.037C1.76 6.263 6.262 1.76 11.797 1.76s10.037 4.503 10.037 10.038c.004 2.024-.608 4-1.753 5.669-.162.236-.2.537-.099.805l1.202 3.21-3.17-1.3c-.45-.185-.964.03-1.149.48-.184.45.03.963.48 1.148l5.035 2.065c.324.133.695.061.946-.182s.334-.612.212-.94z" transform="translate(-267 -220) translate(175 220) translate(92.5)"/>
                    <path d="M9.467 4.778c-.099-.211-.278-.374-.498-.453-.22-.08-.462-.068-.673.032-1.774.837-3.191 2.278-3.997 4.066-.2.444-.002.966.442 1.165.444.2.965.002 1.165-.442.633-1.406 1.747-2.54 3.141-3.198.44-.207.627-.73.42-1.17z" transform="translate(-267 -220) translate(175 220) translate(92.5)"/>
                </g>
            </g>
        </g>
    </g>
</svg>