<svg xmlns="http://www.w3.org/2000/svg" width="24" height="20" viewBox="0 0 25 21">
    <g fill="none" fill-rule="evenodd">
        <g fill="#C87F31" fill-rule="nonzero">
            <g>
                <g>
                    <path d="M23.875 1.18l.02-.047.01-.026.02-.069c0-.01.004-.02.006-.03l.009-.044.004-.034.003-.042V.856.81.78l-.004-.048-.004-.028-.01-.053c0-.007 0-.014-.005-.022V.627l-.022-.069c0-.005-.004-.01-.006-.015-.007-.019-.014-.037-.023-.055l-.012-.025c-.003-.008-.014-.028-.022-.042l-.016-.027-.024-.036-.02-.028L23.753.3 23.73.273l-.036-.037-.022-.02C23.656.2 23.64.186 23.62.172L23.6.157l-.045-.03-.011-.008-.013-.006c-.015-.01-.031-.018-.048-.026l-.02-.011c-.02-.01-.039-.016-.06-.024l-.015-.005c-.023-.009-.047-.015-.071-.022L23.286.02c-.014 0-.029-.006-.043-.008l-.036-.005c-.012-.001-.026 0-.04-.004H2.372C1.437-.009.589.555.24 1.424-.13 2.286.069 3.286.74 3.94l6.118 6.115c.263.263.668.32.994.14l12.95-7.132-9.438 15.73c-.136.227-.4.346-.66.298-.262-.05-.465-.255-.51-.517l-.836-4.813c-.081-.452-.512-.753-.965-.675-.452.078-.757.507-.682.96l.836 4.813c.159.953.9 1.703 1.85 1.874.144.027.289.04.434.04.81.002 1.558-.424 1.97-1.12L23.834 1.264l.007-.013c.01-.016.018-.031.025-.047 0-.01.006-.016.01-.025zM7.596 8.428L1.925 2.757c-.182-.181-.237-.454-.14-.692.099-.238.33-.393.587-.393h17.492L7.596 8.429z" transform="translate(-307 -222) translate(175 220) translate(132.5 2)"/>
                </g>
            </g>
        </g>
    </g>
</svg>